<?xml version="1.0" encoding="UTF-8"?>
<svg width="24px" height="24px" viewBox="0 0 24 24" version="1.1" xmlns="http://www.w3.org/2000/svg" xmlns:xlink="http://www.w3.org/1999/xlink">
    <!-- Generator: Sketch 52.5 (67469) - http://www.bohemiancoding.com/sketch -->
    <title>ic_theme</title>
    <desc>Created with Sketch.</desc>
    <defs>
        <path d="M7.68181818,0 L13,14 L10.6363636,14 L9.30090909,10.5 L3.68727273,10.5 L2.36363636,14 L0,14 L5.31818182,0 L7.68181818,0 Z M4.58545455,8.16666667 L8.41454545,8.16666667 L6.5,3.115 L4.58545455,8.16666667 Z M18.7272727,5 L22,14 L20.5454545,14 L19.7236364,11.75 L16.2690909,11.75 L15.4545455,14 L14,14 L17.2727273,5 L18.7272727,5 Z M16.8218182,10.25 L19.1781818,10.25 L18,7.0025 L16.8218182,10.25 Z" id="path-1"></path>
    </defs>
    <g id="Symbols" stroke="none" stroke-width="1" fill="none" fill-rule="evenodd">
        <g id="ic/theme">
            <g>
                <polygon id="Path" points="0 0 24 0 24 24 0 24"></polygon>
                <g id="color/ic_default" transform="translate(1.000000, 5.000000)">
                    <mask id="mask-2" fill="white">
                        <use xlink:href="#path-1"></use>
                    </mask>
                    <use id="Mask" fill="#999999" fill-rule="nonzero" xlink:href="#path-1"></use>
                    <g mask="url(#mask-2)" fill="#999999">
                        <g transform="translate(-1.000000, -5.000000)">
                            <rect x="0" y="0" width="24" height="24"></rect>
                        </g>
                    </g>
                </g>
            </g>
        </g>
    </g>
</svg>